<svg width="32" height="32" viewBox="0 0 32 32" fill="none" xmlns="http://www.w3.org/2000/svg">
<path d="M21.7032 21.4682C22.5839 20.3891 23.1404 19.0823 23.3081 17.6996C23.4758 16.3168 23.2478 14.9149 22.6506 13.6565C22.0534 12.3982 21.1114 11.3351 19.9342 10.5907C18.7569 9.84631 17.3926 9.45117 15.9997 9.45117C14.6068 9.45117 13.2425 9.84631 12.0652 10.5907C10.888 11.3351 9.94602 12.3982 9.34879 13.6565C8.75156 14.9149 8.52355 16.3168 8.69125 17.6996C8.85896 19.0823 9.41548 20.3891 10.2962 21.4682M18.6682 13.9802L15.6702 16.9782" stroke="#007BFB" stroke-width="1.5" stroke-linecap="round" stroke-linejoin="round"/>
<path d="M10.376 4H21.623C25.553 4 28 6.775 28 10.702V21.298C28 25.225 25.553 28 21.621 28H10.376C6.446 28 4 25.225 4 21.298V10.702C4 6.775 6.457 4 10.376 4Z" stroke="#333333" stroke-width="1.5" stroke-linecap="round" stroke-linejoin="round"/>
</svg>
