<svg width="18" height="20" viewBox="0 0 18 20" fill="none" xmlns="http://www.w3.org/2000/svg">
<path fill-rule="evenodd" clip-rule="evenodd" d="M3 0C1.34315 0 0 1.34315 0 3V17C0 18.6569 1.34315 20 3 20H11C14.866 20 18 16.866 18 13V3C18 1.34315 16.6569 0 15 0H3ZM15 1.5H3C2.17157 1.5 1.5 2.17157 1.5 3V17C1.5 17.8284 2.17157 18.5 3 18.5H10.6435C10.6503 18.4322 10.6551 18.3567 10.6576 18.2724C10.6947 17.0444 10.7599 15.4727 12.0931 14.1388C13.4305 12.801 14.9856 12.762 16.1987 12.7361C16.3207 12.7335 16.4198 12.7357 16.5 12.741V3C16.5 2.17157 15.8284 1.5 15 1.5ZM16.3317 14.3554C15.8313 16.33 14.2628 17.8788 12.277 18.351L12.2779 18.3213C12.3151 17.0893 12.3984 16.1268 13.2394 15.2855C14.0762 14.4483 15.0097 14.3835 16.2333 14.3574L16.3317 14.3554ZM4.5 5C4.22386 5 4 5.22386 4 5.5C4 5.77614 4.22386 6 4.5 6H13.5C13.7761 6 14 5.77614 14 5.5C14 5.22386 13.7761 5 13.5 5H4.5ZM4 8.5C4 8.2239 4.22386 8 4.5 8H13.5C13.7761 8 14 8.2239 14 8.5C14 8.7761 13.7761 9 13.5 9H4.5C4.22386 9 4 8.7761 4 8.5ZM4.5 11C4.22386 11 4 11.2239 4 11.5C4 11.7761 4.22386 12 4.5 12H9.5C9.7761 12 10 11.7761 10 11.5C10 11.2239 9.7761 11 9.5 11H4.5Z" fill="#CCCCCC"/>
</svg>
