<svg width="16" height="16" viewBox="0 0 16 16" fill="none" xmlns="http://www.w3.org/2000/svg">
<g clip-path="url(#clip0_1722_108304)">
<g clip-path="url(#clip1_1722_108304)">
<mask id="mask0_1722_108304" style="mask-type:luminance" maskUnits="userSpaceOnUse" x="0" y="0" width="16" height="16">
<path d="M0 0H16V16H0V0Z" fill="white"/>
</mask>
<g mask="url(#mask0_1722_108304)">
<path d="M7.96 11.286V11.264M15 8C15 6.14348 14.2625 4.36301 12.9497 3.05025C11.637 1.7375 9.85652 1 8 1C6.14348 1 4.36301 1.7375 3.05025 3.05025C1.7375 4.36301 1 6.14348 1 8C1 9.85652 1.7375 11.637 3.05025 12.9497C4.36301 14.2625 6.14348 15 8 15C9.85652 15 11.637 14.2625 12.9497 12.9497C14.2625 11.637 15 9.85652 15 8Z" stroke="#8A8A8A" stroke-width="1.4" stroke-linecap="round" stroke-linejoin="round"/>
<path d="M7.95704 9.3603C7.94804 8.6683 8.57804 8.37431 9.04704 8.10731C9.61804 7.79231 10.005 7.2903 10.005 6.5953C10.005 5.5653 9.17204 4.7373 8.14804 4.7373C7.11804 4.7373 6.29004 5.5643 6.29004 6.5953" stroke="#8A8A8A" stroke-width="1.4" stroke-linecap="round" stroke-linejoin="round"/>
</g>
</g>
</g>
<defs>
<clipPath id="clip0_1722_108304">
<rect width="16" height="16" fill="white"/>
</clipPath>
<clipPath id="clip1_1722_108304">
<rect width="16" height="16" fill="white"/>
</clipPath>
</defs>
</svg>
