<svg width="22" height="22" viewBox="0 0 22 22" fill="none" xmlns="http://www.w3.org/2000/svg">
<g clip-path="url(#clip0_1387_6322)">
<g clip-path="url(#clip1_1387_6322)">
<g clip-path="url(#clip2_1387_6322)">
<path d="M11 21.461C16.7734 21.461 21.4536 16.7775 21.4536 11.0001C21.4536 5.22261 16.7734 0.539062 11 0.539062C5.22668 0.539062 0.546448 5.22261 0.546448 11.0001C0.546448 16.7775 5.22668 21.461 11 21.461Z" stroke="#DEDED5" stroke-width="0.68222" stroke-miterlimit="10"/>
<path d="M10.0876 13.618C10.0876 13.0856 10.1954 12.5994 10.413 12.1594C10.6307 11.7194 10.8901 11.3476 11.1956 11.044C11.499 10.7404 11.8024 10.4478 12.108 10.164C12.4114 9.8824 12.673 9.57 12.8906 9.2268C13.1083 8.8836 13.216 8.5184 13.216 8.1268C13.216 7.4976 13.0006 7.0224 12.5719 6.7012C12.1432 6.38 11.5914 6.2216 10.9186 6.2216C9.58418 6.2216 8.75758 6.7694 8.4432 7.8672L7.48248 7.3282C7.73311 6.6 8.1684 6.05 8.79275 5.6738C9.41711 5.2998 10.125 5.1106 10.9186 5.1106C11.8728 5.1106 12.6862 5.3746 13.3523 5.9004C14.0206 6.4284 14.3526 7.1698 14.3526 8.1246C14.3526 8.591 14.2449 9.0266 14.0272 9.4292C13.8096 9.8318 13.5502 10.1816 13.2446 10.4808C12.9412 10.78 12.6356 11.0748 12.3322 11.3696C12.0289 11.6622 11.7672 12.0032 11.5496 12.3882C11.332 12.7732 11.2242 13.1846 11.2242 13.618H10.0876ZM11.2924 16.6144C11.1187 16.7882 10.9076 16.8762 10.657 16.8762C10.4064 16.8762 10.1954 16.7882 10.0217 16.6144C9.848 16.4405 9.76226 16.2294 9.76226 15.9785C9.76226 15.7278 9.848 15.5166 10.0217 15.3428C10.1954 15.169 10.4064 15.081 10.657 15.081C10.9076 15.081 11.1187 15.169 11.2924 15.3428C11.4661 15.5166 11.554 15.7278 11.554 15.9785C11.554 16.2294 11.4661 16.4405 11.2924 16.6144Z" fill="#FFA800"/>
</g>
</g>
</g>
<defs>
<clipPath id="clip0_1387_6322">
<rect width="22" height="22" fill="white"/>
</clipPath>
<clipPath id="clip1_1387_6322">
<rect width="22" height="22" fill="white"/>
</clipPath>
<clipPath id="clip2_1387_6322">
<rect width="22" height="22" fill="white"/>
</clipPath>
</defs>
</svg>
