<svg width="14" height="14" viewBox="0 0 14 14" fill="none" xmlns="http://www.w3.org/2000/svg">
<path d="M0.851562 7.6875L6.64844 1.89844C6.7474 1.79948 6.86458 1.75 7 1.75C7.13542 1.75 7.2526 1.79948 7.35156 1.89844L13.1484 7.6875C13.2474 7.78646 13.2969 7.90495 13.2969 8.04297C13.2969 8.18099 13.2474 8.29948 13.1484 8.39844L11.8516 9.6875C11.7526 9.78646 11.6354 9.83594 11.5 9.83594C11.3646 9.83594 11.2474 9.78646 11.1484 9.6875L7 5.53906L2.85156 9.6875C2.7526 9.78646 2.63542 9.83594 2.5 9.83594C2.36458 9.83594 2.2474 9.78646 2.14844 9.6875L0.851562 8.39844C0.752604 8.29948 0.703125 8.18099 0.703125 8.04297C0.703125 7.90495 0.752604 7.78646 0.851562 7.6875Z" fill="#A5A5A5"/>
</svg>
