<svg class="expIcon" width="24" height="24" viewBox="0 0 24 24" fill="none" xmlns="http://www.w3.org/2000/svg">
<path fill-rule="evenodd" clip-rule="evenodd" d="M10.7379 16.6269C9.96427 16.6269 9.31895 16.0357 9.2514 15.265C9.11015 13.6538 9.07441 12.0353 9.14427 10.42C9.05994 10.4143 8.97563 10.4085 8.89133 10.4023L7.40178 10.2937C6.44973 10.2243 5.91752 9.16276 6.43151 8.35837C7.5277 6.64286 9.53693 4.72281 11.1904 3.53507C11.6742 3.18753 12.3258 3.18753 12.8097 3.53507C14.4631 4.72281 16.4723 6.64286 17.5685 8.35837C18.0825 9.16276 17.5503 10.2243 16.5983 10.2937L15.1087 10.4023C15.0244 10.4084 14.9401 10.4143 14.8558 10.42C14.9256 12.0353 14.8899 13.6538 14.7486 15.265C14.6811 16.0357 14.0358 16.6269 13.2622 16.6269H10.7379ZM10.6815 9.7622C10.5678 11.5494 10.589 13.3428 10.745 15.1269H13.255C13.411 13.3427 13.4323 11.5494 13.3186 9.7622C13.3058 9.56183 13.3739 9.36471 13.5077 9.21497C13.6414 9.06523 13.8296 8.97536 14.0301 8.96548C14.3535 8.94955 14.6767 8.92982 14.9997 8.90627L16.0815 8.82742C15.1219 7.41412 13.9204 6.17987 12.5313 5.18201L12 4.80037L11.4687 5.18201C10.0796 6.17987 8.87813 7.41412 7.91858 8.82742L9.00038 8.90627C9.32337 8.92982 9.64656 8.94955 9.9699 8.96548C10.1704 8.97536 10.3586 9.06523 10.4924 9.21497C10.6261 9.36471 10.6942 9.56183 10.6815 9.7622Z" fill="#64748B"/>
<path d="M5.75 16.9997C5.75 16.5855 5.41421 16.2497 5 16.2497C4.58579 16.2497 4.25 16.5855 4.25 16.9997V18.9997C4.25 19.9662 5.0335 20.7497 6 20.7497H18C18.9665 20.7497 19.75 19.9662 19.75 18.9997V16.9997C19.75 16.5855 19.4142 16.2497 19 16.2497C18.5858 16.2497 18.25 16.5855 18.25 16.9997V18.9997C18.25 19.1377 18.1381 19.2497 18 19.2497H6C5.86193 19.2497 5.75 19.1377 5.75 18.9997V16.9997Z" fill="#64748B"/>
</svg>
