<svg width="18" height="25" viewBox="0 0 18 25" fill="none" xmlns="http://www.w3.org/2000/svg">
<path d="M4.72852 9.5V4.5C4.72852 -0.5 12.6853 -0.5 12.6853 4.5V9.5" stroke="#2196F3" stroke-width="1.5"/>
<path d="M14.6745 9.5H2.73921C1.6406 9.5 0.75 10.3954 0.75 11.5V21.5C0.75 22.6046 1.6406 23.5 2.73921 23.5H14.6745C15.7731 23.5 16.6637 22.6046 16.6637 21.5V11.5C16.6637 10.3954 15.7731 9.5 14.6745 9.5Z" stroke="#2196F3" stroke-width="1.5"/>
<path d="M8.70675 18C9.53071 18 10.1987 17.3284 10.1987 16.5C10.1987 15.6716 9.53071 15 8.70675 15C7.88279 15 7.21484 15.6716 7.21484 16.5C7.21484 17.3284 7.88279 18 8.70675 18Z" fill="#2196F3"/>
</svg>
