<svg width="16" height="16" viewBox="0 0 16 16" fill="none" xmlns="http://www.w3.org/2000/svg">
<path d="M7.6499 14.6504C11.5159 14.6504 14.6499 11.5164 14.6499 7.65039C14.6499 3.7844 11.5159 0.650391 7.6499 0.650391C3.78391 0.650391 0.649902 3.7844 0.649902 7.65039C0.649902 11.5164 3.78391 14.6504 7.6499 14.6504Z" stroke="#64748B" stroke-width="1.3"/>
<path d="M6.87433 12.6504V6.10494H8.68968V12.6504H6.87433ZM7.78627 5.26119C7.51638 5.26119 7.28485 5.1717 7.09166 4.99272C6.90132 4.8109 6.80615 4.59357 6.80615 4.34073C6.80615 4.09073 6.90132 3.87624 7.09166 3.69727C7.28485 3.51545 7.51638 3.42454 7.78627 3.42454C8.05615 3.42454 8.28627 3.51545 8.47661 3.69727C8.66979 3.87624 8.76638 4.09073 8.76638 4.34073C8.76638 4.59357 8.66979 4.8109 8.47661 4.99272C8.28627 5.1717 8.05615 5.26119 7.78627 5.26119Z" fill="#64748B"/>
</svg>
