<svg class="arrow" width="20" height="20" viewBox="0 0 20 20" fill="none" xmlns="http://www.w3.org/2000/svg">
<g clip-path="url(#clip0_1606_63149)">
<path d="M7.92113 4.00004C7.67651 3.99788 7.441 4.09272 7.26613 4.26379C7.13838 4.39121 7.05176 4.55399 7.01745 4.73113C6.98313 4.90827 7.0027 5.09163 7.07363 5.25754C7.12191 5.36729 7.1916 5.46631 7.27863 5.54879L11.7961 10.0113L7.27863 14.4738C7.11325 14.643 7.0216 14.8708 7.02371 15.1074C7.02582 15.3439 7.12152 15.5701 7.28988 15.7363C7.45966 15.9042 7.6882 15.9993 7.92697 16.0014C8.16574 16.0035 8.39593 15.9124 8.56863 15.7475L13.7324 10.6475C13.8165 10.5642 13.8834 10.465 13.929 10.3557C13.9746 10.2464 13.998 10.1291 13.998 10.0107C13.998 9.89222 13.9746 9.77495 13.929 9.66563C13.8834 9.55632 13.8165 9.45712 13.7324 9.37379L8.56988 4.27504C8.48518 4.18839 8.38409 4.11946 8.2725 4.07225C8.16091 4.02503 8.0423 4.00049 7.92113 4.00004Z" fill="#B2B4B3"/>
</g>
<defs>
<clipPath id="clip0_1606_63149">
<rect width="20" height="20" fill="white"/>
</clipPath>
</defs>
</svg>
