<svg     class="header__user-icon" width="24" height="24" viewBox="0 0 24 24" fill="none" xmlns="http://www.w3.org/2000/svg">
<path class="header__user-path" d="M5.41101 3.933L7.17101 12.21C7.22618 12.4695 7.38218 12.6965 7.60469 12.841C7.71486 12.9125 7.83805 12.9617 7.96722 12.9856C8.09639 13.0096 8.22901 13.0078 8.35751 12.9805C8.48601 12.9532 8.60787 12.9008 8.71614 12.8264C8.8244 12.752 8.91695 12.657 8.9885 12.5468C9.06004 12.4366 9.10919 12.3135 9.13313 12.1843C9.15707 12.0551 9.15533 11.9225 9.12801 11.794L7.47001 4H13.925L14.988 9H17.033L15.814 3.267C15.718 2.815 15.67 2.59 15.55 2.421C15.4443 2.27193 15.2997 2.15468 15.132 2.082C14.943 2 14.713 2 14.25 2H6.97601C6.30001 2 5.96101 2 5.72601 2.14C5.51956 2.26188 5.36376 2.45387 5.28701 2.681C5.20001 2.941 5.27001 3.271 5.41101 3.933Z" fill="#8C8A87"/>
<path class="header__user-path" d="M5.9 12.48L5.371 10H1L2.8 18.466C2.993 19.369 3.09 19.821 3.33 20.159C3.54134 20.4566 3.8301 20.6908 4.165 20.836C4.545 21 5.007 21 5.931 21H17.681C18.568 21 19.011 21 19.381 20.846C19.7073 20.7096 19.9917 20.4891 20.205 20.207C20.447 19.887 20.558 19.459 20.78 18.6L23 10H10.075L10.399 11.523C10.5259 12.1197 10.4106 12.7424 10.0783 13.2541C9.74612 13.7658 9.22424 14.1246 8.6275 14.2515C8.03076 14.3784 7.40805 14.2631 6.89636 13.9308C6.38467 13.5986 6.02691 13.0767 5.9 12.48Z" fill="#8C8A87"/>
</svg>
