<svg class="closeSvg" width="12" height="12" viewBox="0 0 12 12" fill="none" xmlns="http://www.w3.org/2000/svg">
    <path
        d="M11.3591 0.307538C11.7692 0.717588 11.7692 1.38241 11.3591 1.79246L7.3185 5.83333L11.3591 9.87422C11.735 10.2501 11.7663 10.8401 11.4531 11.2516L11.3591 11.3591C10.9491 11.7692 10.2843 11.7692 9.87422 11.3591L5.83333 7.3185L1.79246 11.3591C1.38241 11.7692 0.717588 11.7692 0.307538 11.3591C-0.102513 10.9491 -0.102513 10.2843 0.307538 9.87422L4.34817 5.83333L0.307538 1.79246C-0.0683417 1.41658 -0.0996651 0.826623 0.213568 0.415063L0.307538 0.307538C0.717588 -0.102513 1.38241 -0.102513 1.79246 0.307538L5.83333 4.34817L9.87422 0.307538C10.2843 -0.102513 10.9491 -0.102513 11.3591 0.307538Z"
        fill="#818C99" />
</svg>