<svg width="20" height="20" viewBox="0 0 20 20" fill="none" xmlns="http://www.w3.org/2000/svg">
<g clip-path="url(#clip0_1611_73174)">
<path d="M17.4975 12.005H14.325C13.7759 11.9895 13.2544 11.7605 12.8715 11.3667C12.4885 10.9728 12.2743 10.4451 12.2743 9.89579C12.2743 9.34645 12.4885 8.81877 12.8715 8.42491C13.2544 8.03104 13.7759 7.80206 14.325 7.78662H17.4975M14.1642 9.84912H14.1617" stroke="#0177FF" stroke-width="1.25" stroke-linecap="round" stroke-linejoin="round"/>
<path d="M2.5 9.67574V7.18574C2.50022 6.09496 2.93369 5.04893 3.70506 4.27772C4.47644 3.5065 5.52255 3.07324 6.61333 3.07324H13.3867C14.4773 3.07324 15.5233 3.50638 16.2946 4.27742C17.066 5.04846 17.4996 6.09427 17.5 7.18491V12.8099C17.5 13.9008 17.0666 14.9471 16.2952 15.7185C15.5238 16.4899 14.4776 16.9232 13.3867 16.9232H10.5317M6.38833 13.0332L2.5 16.9232" stroke="#0177FF" stroke-width="1.25" stroke-linecap="round" stroke-linejoin="round"/>
<path d="M6.38253 16.1642L6.3892 13.0342L3.25836 13.04" stroke="#0177FF" stroke-width="1.25" stroke-linecap="round" stroke-linejoin="round"/>
</g>
<defs>
<clipPath id="clip0_1611_73174">
<rect width="20" height="20" fill="white"/>
</clipPath>
</defs>
</svg>
