<svg xmlns="http://www.w3.org/2000/svg" width="16" height="16" fill="none">
    <path fill="#FE7A32" fill-rule="evenodd"
        d="M13.201 5.495C12.31 3.64 10.757 2.123 8.587.987a.372.372 0 0 0-.54.377c.22 1.69-.086 4.05-.983 5.07-.29.333-.618.5-.996.51-.252-.424-.51-2.24-.51-2.658a.37.37 0 0 0-.586-.302c-.284.203-.911.79-1.106.984-1.964 1.87-2.42 4.604-1.165 6.966 1.053 1.98 2.978 3.121 5.11 3.121.438 0 .885-.048 1.333-.147 1.843-.304 3.319-1.387 4.156-3.05.968-1.922.93-4.359-.099-6.363"
        clip-rule="evenodd" />
</svg>