<svg width="18" height="17" viewBox="0 0 18 17" fill="none" xmlns="http://www.w3.org/2000/svg">
<path d="M9 12C10.3807 12 11.5 10.8807 11.5 9.5C11.5 8.11926 10.3807 7 9 7C7.61926 7 6.5 8.11926 6.5 9.5C6.5 10.8807 7.61926 12 9 12Z" fill="#60635E"/>
<path fill-rule="evenodd" clip-rule="evenodd" d="M13.4806 2.6958C13.4924 2.94923 13.6869 3.15945 13.9387 3.19094C17.5821 3.64671 18 5.13107 18 9.75C18 15.9377 17.25 16.5 9 16.5C0.75 16.5 0 15.9377 0 9.75C0 5.13107 0.41791 3.64671 4.06133 3.19094C4.31307 3.15945 4.50765 2.94923 4.51944 2.6958C4.6335 0.245466 5.34336 0 9 0C12.6566 0 13.3665 0.245466 13.4806 2.6958ZM9 13.5C11.2092 13.5 13 11.7092 13 9.5C13 7.29083 11.2092 5.5 9 5.5C6.79083 5.5 5 7.29083 5 9.5C5 11.7092 6.79083 13.5 9 13.5ZM15.5 6.5C15.5 7.05229 15.0523 7.5 14.5 7.5C13.9477 7.5 13.5 7.05229 13.5 6.5C13.5 5.94771 13.9477 5.5 14.5 5.5C15.0523 5.5 15.5 5.94771 15.5 6.5Z" fill="#60635E"/>
</svg>
