<svg width="16" height="16" viewBox="0 0 16 16" fill="none" xmlns="http://www.w3.org/2000/svg">
<g clip-path="url(#clip0_1611_73135)">
<g clip-path="url(#clip1_1611_73135)">
<mask id="mask0_1611_73135" style="mask-type:luminance" maskUnits="userSpaceOnUse" x="0" y="0" width="16" height="16">
<path d="M0 0H16V16H0V0Z" fill="white"/>
</mask>
<g mask="url(#mask0_1611_73135)">
<path d="M7.96 11.286V11.264M15 8C15 6.14348 14.2625 4.36301 12.9497 3.05025C11.637 1.7375 9.85652 1 8 1C6.14348 1 4.36301 1.7375 3.05025 3.05025C1.7375 4.36301 1 6.14348 1 8C1 9.85652 1.7375 11.637 3.05025 12.9497C4.36301 14.2625 6.14348 15 8 15C9.85652 15 11.637 14.2625 12.9497 12.9497C14.2625 11.637 15 9.85652 15 8Z" stroke="#8A8A8A" stroke-width="1.4" stroke-linecap="round" stroke-linejoin="round"/>
<path d="M7.95698 9.35982C7.94798 8.66782 8.57798 8.37382 9.04698 8.10682C9.61798 7.79182 10.005 7.28982 10.005 6.59482C10.005 5.56482 9.17198 4.73682 8.14798 4.73682C7.11798 4.73682 6.28998 5.56382 6.28998 6.59482" stroke="#8A8A8A" stroke-width="1.4" stroke-linecap="round" stroke-linejoin="round"/>
</g>
</g>
</g>
<defs>
<clipPath id="clip0_1611_73135">
<rect width="16" height="16" fill="white"/>
</clipPath>
<clipPath id="clip1_1611_73135">
<rect width="16" height="16" fill="white"/>
</clipPath>
</defs>
</svg>
