<svg width="12" height="21" viewBox="0 0 12 21" fill="none" xmlns="http://www.w3.org/2000/svg">
<path d="M11.268 13.7661C10.3014 14.3735 9.2517 14.804 8.1632 15.0521L11.1523 18.0412C11.7647 18.6522 11.7647 19.6445 11.1523 20.2561C10.5406 20.8678 9.5491 20.8678 8.938 20.2561L5.9995 17.3189L3.0635 20.2561C2.7573 20.5617 2.3563 20.7148 1.9551 20.7148C1.5546 20.7148 1.1541 20.5617 0.847901 20.2561C0.236201 19.6445 0.2362 18.6529 0.8473 18.0412L3.8364 15.0521C2.7479 14.804 1.6982 14.3729 0.731701 13.7661C1.01328e-06 13.3051 -0.2199 12.3385 0.2411 11.6062C0.7011 10.8729 1.6676 10.6524 2.4006 11.1134C4.5893 12.4903 7.4091 12.4909 9.5991 11.1134C10.3319 10.6524 11.2986 10.8729 11.759 11.6062C12.2201 12.3379 11.9995 13.3051 11.268 13.7661Z" fill="#EF7D00"/>
<path fill-rule="evenodd" clip-rule="evenodd" d="M11.3456 5.3471C11.3456 8.2946 8.94829 10.692 5.99909 10.692C3.05059 10.692 0.652588 8.2946 0.652588 5.3471C0.652588 2.3982 3.05059 0 5.99909 0C8.94829 0 11.3456 2.3982 11.3456 5.3471ZM8.21329 5.3458C8.21329 4.1249 7.22039 3.132 5.99959 3.132C4.77999 3.132 3.78579 4.1249 3.78579 5.3458C3.78579 6.5654 4.77999 7.5585 5.99959 7.5585C7.22039 7.5585 8.21329 6.5654 8.21329 5.3458Z" fill="#EF7D00"/>
</svg>
