<svg width="16" height="16" viewBox="0 0 16 16" fill="none" xmlns="http://www.w3.org/2000/svg">
<path d="M11.0579 4.3782C10.2288 3.5855 9.1742 3.1818 7.9997 3.1818C5.9164 3.1818 4.153 4.5886 3.5236 6.479C3.3636 6.959 3.2727 7.4727 3.2727 8C3.2727 8.5272 3.3636 9.04 3.5236 9.52C4.1529 11.4106 5.9162 12.8177 7.9997 12.8177C9.076 12.8177 9.9924 12.5341 10.7088 12.0541C11.556 11.4868 12.12 10.6399 12.3055 9.64H8V6.5454H15.5345C15.6291 7.069 15.68 7.6145 15.68 8.1818C15.68 10.6181 14.8073 12.669 13.2945 14.0618C11.9709 15.2833 10.1594 15.9995 7.9997 15.9995C4.8724 15.9995 2.1669 14.2068 0.8506 11.5923C0.309 10.5124 0 9.2906 0 8C0 6.7091 0.3091 5.4874 0.8508 4.4074C2.1672 1.7929 4.8724 0 7.9997 0C10.156 0 11.9669 0.792699 13.3524 2.0836L11.0579 4.3782Z" fill="#EA4335"/>
</svg>
