<svg width="22" height="22" viewBox="0 0 22 22" fill="none" xmlns="http://www.w3.org/2000/svg">
<path d="M11 22C17.0751 22 22 17.0751 22 11C22 4.92487 17.0751 0 11 0C4.92487 0 0 4.92487 0 11C0 17.0751 4.92487 22 11 22Z" fill="#2AABEE"/>
<path fill-rule="evenodd" clip-rule="evenodd" d="M4.97925 10.884C8.18597 9.48684 10.3243 8.56577 11.3942 8.12076C14.449 6.85015 15.0838 6.62944 15.4975 6.62215C15.5885 6.62055 15.792 6.6431 15.9238 6.75004C16.035 6.84034 16.0657 6.96232 16.0803 7.04793C16.095 7.13354 16.1132 7.32857 16.0987 7.48097C15.9332 9.22033 15.2169 13.4413 14.8525 15.3894C14.6983 16.2137 14.3946 16.4901 14.1007 16.5172C13.4619 16.5759 12.9769 16.095 12.3582 15.6894C11.39 15.0548 10.8431 14.6598 9.90332 14.0405C8.81728 13.3248 9.52131 12.9314 10.1402 12.2886C10.3022 12.1203 13.1168 9.56031 13.1712 9.32808C13.178 9.29903 13.1844 9.19077 13.12 9.1336C13.0557 9.07643 12.9608 9.09598 12.8923 9.11153C12.7952 9.13357 11.2486 10.1558 8.25243 12.1783C7.81343 12.4798 7.41579 12.6266 7.05952 12.6189C6.66677 12.6105 5.91126 12.3969 5.34962 12.2143C4.66074 11.9904 4.11324 11.872 4.16091 11.4917C4.18575 11.2936 4.45852 11.091 4.97925 10.884Z" fill="white"/>
</svg>
