<svg width="56" height="56" viewBox="0 0 56 56" fill="none" xmlns="http://www.w3.org/2000/svg">
<g clip-path="url(#clip0_1387_16182)">
<g clip-path="url(#clip1_1387_16182)">
<path fill-rule="evenodd" clip-rule="evenodd" d="M24.3341 9.085L6.17511 39.704C5.80111 40.359 5.60211 41.101 5.60011 41.858C5.59811 42.615 5.79211 43.358 6.16311 44.015C6.5326 44.6707 7.06733 45.2182 7.71411 45.603C8.35911 45.987 9.09311 46.193 9.84111 46.201H46.1591C46.9081 46.193 47.6411 45.986 48.2861 45.603C48.9329 45.2182 49.4676 44.6707 49.8371 44.015C50.2081 43.358 50.4021 42.614 50.4001 41.858C50.3981 41.102 50.2001 40.359 49.8251 39.704L31.6661 9.085C31.2841 8.449 30.7461 7.922 30.1041 7.557C29.4621 7.192 28.7371 7 28.0001 7C27.2631 7 26.5381 7.192 25.8961 7.557C25.2525 7.92356 24.7152 8.44982 24.3341 9.085ZM28.0001 16.8C28.3678 16.8 28.7319 16.8724 29.0716 17.0131C29.4113 17.1539 29.72 17.3601 29.98 17.6201C30.24 17.8801 30.4463 18.1888 30.587 18.5285C30.7277 18.8682 30.8001 19.2323 30.8001 19.6V28.933C30.8001 29.3007 30.7277 29.6648 30.587 30.0045C30.4463 30.3442 30.24 30.6529 29.98 30.9129C29.72 31.1729 29.4113 31.3792 29.0716 31.5199C28.7319 31.6606 28.3678 31.733 28.0001 31.733C27.6324 31.733 27.2683 31.6606 26.9286 31.5199C26.5889 31.3792 26.2802 31.1729 26.0202 30.9129C25.7602 30.6529 25.554 30.3442 25.4132 30.0045C25.2725 29.6648 25.2001 29.3007 25.2001 28.933V19.6C25.2001 19.2323 25.2725 18.8682 25.4132 18.5285C25.554 18.1888 25.7602 17.8801 26.0202 17.6201C26.2802 17.3601 26.5889 17.1539 26.9286 17.0131C27.2683 16.8724 27.6324 16.8 28.0001 16.8ZM28.0001 35.467C27.2575 35.467 26.5453 35.762 26.0202 36.2871C25.4951 36.8122 25.2001 37.5244 25.2001 38.267C25.2001 39.0096 25.4951 39.7218 26.0202 40.2469C26.5453 40.772 27.2575 41.067 28.0001 41.067H28.0231C28.7657 41.067 29.4779 40.772 30.003 40.2469C30.5281 39.7218 30.8231 39.0096 30.8231 38.267C30.8231 37.5244 30.5281 36.8122 30.003 36.2871C29.4779 35.762 28.7657 35.467 28.0231 35.467H28.0001Z" fill="#FFA800"/>
</g>
</g>
<defs>
<clipPath id="clip0_1387_16182">
<rect width="56" height="56" fill="white"/>
</clipPath>
<clipPath id="clip1_1387_16182">
<rect width="56" height="56" fill="white"/>
</clipPath>
</defs>
</svg>
