<svg width="16" height="16" viewBox="0 0 16 16" fill="none" xmlns="http://www.w3.org/2000/svg">
<path d="M10.7812 2.54688C10.6667 2.43229 10.5312 2.375 10.375 2.375C10.2188 2.375 10.0833 2.43229 9.96875 2.54688C9.85417 2.65104 9.79688 2.78125 9.79688 2.9375C9.79688 3.09375 9.85417 3.22917 9.96875 3.34375L14.0625 7.4375H0.5625C0.40625 7.4375 0.273438 7.49219 0.164062 7.60156C0.0546875 7.71094 0 7.84375 0 8C0 8.15625 0.0546875 8.28906 0.164062 8.39844C0.273438 8.50781 0.40625 8.5625 0.5625 8.5625H14.0625L9.96875 12.6562C9.85417 12.7604 9.79688 12.8932 9.79688 13.0547C9.79688 13.2161 9.85417 13.349 9.96875 13.4531C10.0833 13.5677 10.2188 13.625 10.375 13.625C10.5312 13.625 10.6667 13.5677 10.7812 13.4531L15.8281 8.40625C15.9427 8.29167 16 8.15625 16 8C16 7.84375 15.9427 7.70833 15.8281 7.59375L10.7812 2.54688Z" fill="#111111"/>
</svg>
