<svg width="34" height="34" viewBox="0 0 34 34" fill="none" xmlns="http://www.w3.org/2000/svg">
<path d="M16.7698 8.26001C17.1684 7.58534 17.7013 7.06017 18.3682 6.68451C19.0352 6.30884 19.7521 6.11717 20.5188 6.10951C21.2854 6.10184 22.0061 6.28967 22.6807 6.67301C23.3554 7.05634 23.8844 7.58151 24.2677 8.24851C24.6511 8.91551 24.8466 9.62851 24.8542 10.3875C24.8619 11.1465 24.6664 11.8633 24.2677 12.538L18.3108 22.727C18.0501 23.1717 17.7013 23.5205 17.2642 23.7735C16.8273 24.0265 16.3519 24.1568 15.8383 24.1645C15.3246 24.1722 14.8454 24.0457 14.4008 23.785C13.9561 23.5243 13.6073 23.1717 13.3542 22.727C13.1012 22.2823 12.9748 21.807 12.9748 21.301C12.9748 20.795 13.1051 20.3197 13.3658 19.875L18.8628 10.468C18.9854 10.2533 19.1694 10.1115 19.4148 10.0425C19.6601 9.97351 19.8939 10.0042 20.1163 10.1345C20.3386 10.2648 20.4804 10.4527 20.5417 10.698C20.6031 10.9433 20.5724 11.1733 20.4497 11.388L14.9528 20.795C14.8148 21.0403 14.7803 21.2972 14.8492 21.5655C14.9183 21.8338 15.0792 22.037 15.3323 22.175C15.5852 22.313 15.8459 22.3475 16.1143 22.2785C16.3826 22.2095 16.5858 22.0523 16.7238 21.807L22.6807 11.618C23.0181 11.0353 23.0986 10.4143 22.9222 9.75501C22.7459 9.09567 22.3664 8.59734 21.7837 8.26001C21.3851 8.04534 20.9672 7.94184 20.5302 7.94951C20.0933 7.95717 19.6831 8.06834 19.2998 8.28301C18.9164 8.49767 18.6097 8.79667 18.3798 9.18001L11.9627 20.174C11.5947 20.7873 11.4146 21.439 11.4223 22.129C11.4299 22.819 11.6063 23.4668 11.9513 24.0725C12.2963 24.6782 12.7754 25.1573 13.3888 25.51C14.0021 25.8627 14.6614 26.0352 15.3668 26.0275C16.0721 26.0198 16.7276 25.8435 17.3333 25.4985C17.9389 25.1535 18.4181 24.6743 18.7708 24.061L20.8638 20.473C20.9864 20.2583 21.1742 20.1203 21.4272 20.059C21.6803 19.9977 21.9141 20.0283 22.1287 20.151C22.3434 20.2737 22.4814 20.4615 22.5428 20.7145C22.6041 20.9675 22.5734 21.2013 22.4508 21.416L20.3807 24.981C19.8594 25.8857 19.1503 26.591 18.2533 27.097C17.3562 27.603 16.3941 27.8598 15.3668 27.8675C14.3394 27.8752 13.3734 27.6222 12.4688 27.1085C11.5641 26.5948 10.8587 25.8933 10.3528 25.004C9.84675 24.1147 9.59375 23.1602 9.59375 22.1405C9.59375 21.1208 9.85442 20.1587 10.3758 19.254L16.7698 8.26001Z" fill="#999999"/>
</svg>
