<svg width="22" height="22" viewBox="0 0 22 22" fill="none" xmlns="http://www.w3.org/2000/svg">
<path d="M11 0C9.48177 0 8.05664 0.286459 6.72461 0.859375C5.39258 1.44662 4.22884 2.23796 3.2334 3.2334C2.23796 4.22884 1.44661 5.39258 0.859375 6.72461C0.286458 8.05664 0 9.48177 0 11C0 12.5182 0.286458 13.9434 0.859375 15.2754C1.44661 16.6074 2.23796 17.7712 3.2334 18.7666C4.22884 19.762 5.39258 20.5534 6.72461 21.1406C8.05664 21.7135 9.48177 22 11 22C12.5182 22 13.9434 21.7135 15.2754 21.1406C16.6074 20.5534 17.7712 19.762 18.7666 18.7666C19.762 17.7712 20.5534 16.6074 21.1406 15.2754C21.7135 13.9434 22 12.5182 22 11C22 9.48177 21.7135 8.05664 21.1406 6.72461C20.5534 5.39258 19.762 4.22884 18.7666 3.2334C17.7712 2.23796 16.6074 1.44662 15.2754 0.859375C13.9434 0.286459 12.5182 0 11 0ZM11 20.8184C10.3268 20.8184 9.66797 20.7467 9.02344 20.6035C8.39323 20.4746 7.78451 20.2884 7.19727 20.0449C6.61003 19.8014 6.05859 19.5007 5.54297 19.1426C5.01302 18.7845 4.52604 18.3906 4.08203 17.9609C3.72396 17.6029 3.39811 17.2233 3.10449 16.8223C2.81087 16.4212 2.54232 15.9987 2.29883 15.5547C1.94076 14.8672 1.66504 14.1403 1.47168 13.374C1.27832 12.6077 1.18164 11.8164 1.18164 11C1.18164 9.65365 1.43945 8.37891 1.95508 7.17578C2.4707 5.98698 3.17253 4.94857 4.06055 4.06055C4.94857 3.17253 5.98698 2.4707 7.17578 1.95508C8.37891 1.43945 9.65365 1.18164 11 1.18164C11.6445 1.18164 12.2676 1.24609 12.8691 1.375C13.485 1.48958 14.0723 1.66146 14.6309 1.89062C15.1895 2.11979 15.7266 2.39193 16.2422 2.70703C16.7435 3.03646 17.2161 3.40169 17.6602 3.80273C18.1042 4.2181 18.5124 4.67643 18.8848 5.17773C19.2572 5.67904 19.5794 6.20898 19.8516 6.76758C20.1523 7.41211 20.3887 8.08887 20.5605 8.79785C20.7324 9.50684 20.8184 10.2409 20.8184 11C20.8184 12.3464 20.5605 13.6211 20.0449 14.8242C19.5293 16.013 18.8275 17.0514 17.9395 17.9395C17.0514 18.8275 16.013 19.5293 14.8242 20.0449C13.6211 20.5605 12.3464 20.8184 11 20.8184ZM8.5293 8.55078C8.5293 8.88021 8.41113 9.1595 8.1748 9.38867C7.93848 9.61784 7.6556 9.73242 7.32617 9.73242C6.99674 9.73242 6.71745 9.61784 6.48828 9.38867C6.25911 9.1595 6.14453 8.88021 6.14453 8.55078C6.14453 8.22135 6.25911 7.93848 6.48828 7.70215C6.71745 7.46582 6.99674 7.34766 7.32617 7.34766C7.6556 7.34766 7.93848 7.46582 8.1748 7.70215C8.41113 7.93848 8.5293 8.22135 8.5293 8.55078ZM15.877 8.55078C15.877 8.88021 15.7624 9.1595 15.5332 9.38867C15.304 9.61784 15.0247 9.73242 14.6953 9.73242C14.3659 9.73242 14.083 9.61784 13.8467 9.38867C13.6104 9.1595 13.4922 8.88021 13.4922 8.55078C13.4922 8.22135 13.6104 7.93848 13.8467 7.70215C14.083 7.46582 14.3659 7.34766 14.6953 7.34766C15.0247 7.34766 15.304 7.46582 15.5332 7.70215C15.7624 7.93848 15.877 8.22135 15.877 8.55078ZM15.9199 15.0605C15.9629 15.1465 16.0059 15.2324 16.0488 15.3184C16.0918 15.4043 16.1348 15.4902 16.1777 15.5762L17.252 15.082C17.209 14.9818 17.1624 14.8815 17.1123 14.7812C17.0622 14.681 17.0085 14.5807 16.9512 14.4805C16.6361 13.9219 16.2493 13.4206 15.791 12.9766C15.347 12.5326 14.8493 12.1602 14.2979 11.8594C13.7464 11.5586 13.1556 11.3294 12.5254 11.1719C11.9095 11.0286 11.2793 10.9714 10.6348 11C10.0046 11.043 9.38867 11.1647 8.78711 11.3652C8.18555 11.5801 7.62695 11.8665 7.11133 12.2246C6.5957 12.5827 6.13737 12.998 5.73633 13.4707C5.32096 13.9577 4.98438 14.4948 4.72656 15.082L5.82227 15.5762C6.25195 14.6022 6.90723 13.8109 7.78809 13.2021C8.66895 12.5934 9.63932 12.2604 10.6992 12.2031C11.7591 12.1458 12.7653 12.3786 13.7178 12.9014C14.6702 13.4242 15.4043 14.1439 15.9199 15.0605ZM7.79883 4.46875L9.73242 5.86523L9.04492 6.83203L7.11133 5.43555L7.79883 4.46875ZM14.2012 4.46875L14.8887 5.43555L12.9551 6.83203L12.2676 5.86523L14.2012 4.46875Z" fill="#EF683F"/>
</svg>
