<svg width="40" height="40" viewBox="0 0 40 40" fill="none" xmlns="http://www.w3.org/2000/svg">
<g clip-path="url(#clip0_1387_14277)">
<path d="M28.1386 11.8601C27.9135 11.635 27.6083 11.5086 27.2901 11.5086C26.9718 11.5086 26.6666 11.635 26.4416 11.8601L19.9986 18.3031L13.5546 11.8601C13.4443 11.7439 13.3119 11.651 13.1651 11.5868C13.0184 11.5227 12.8602 11.4885 12.7001 11.4864C12.5399 11.4843 12.381 11.5143 12.2326 11.5746C12.0842 11.6349 11.9494 11.7243 11.8361 11.8375C11.7228 11.9508 11.6333 12.0855 11.5729 12.2339C11.5125 12.3822 11.4825 12.5412 11.4845 12.7013C11.4865 12.8615 11.5205 13.0196 11.5846 13.1664C11.6487 13.3132 11.7415 13.4457 11.8576 13.5561L18.3016 20.0001L11.8586 26.4441C11.6366 26.6697 11.5127 26.974 11.514 27.2905C11.5153 27.6071 11.6416 27.9103 11.8655 28.1342C12.0893 28.358 12.3926 28.4843 12.7091 28.4856C13.0257 28.4869 13.3299 28.3631 13.5556 28.1411L19.9986 21.6971L26.4426 28.1411C26.6683 28.3631 26.9725 28.4869 27.2891 28.4856C27.6056 28.4843 27.9089 28.358 28.1327 28.1342C28.3566 27.9103 28.4829 27.6071 28.4842 27.2905C28.4855 26.974 28.3616 26.6697 28.1396 26.4441L21.6956 20.0001L28.1396 13.5561C28.3646 13.331 28.491 13.0258 28.491 12.7076C28.491 12.3893 28.3646 12.0841 28.1396 11.8591L28.1386 11.8601Z" fill="#333333"/>
</g>
<defs>
<clipPath id="clip0_1387_14277">
<rect width="18" height="18" fill="white" transform="translate(11 11)"/>
</clipPath>
</defs>
</svg>
