<svg width="24" height="24" viewBox="0 0 24 24" fill="none" xmlns="http://www.w3.org/2000/svg">
<g clip-path="url(#clip0_1387_16264)">
<path d="M14.4342 9.76789C14.5085 9.69356 14.5967 9.6346 14.6938 9.59438C14.7909 9.55415 14.895 9.53345 15.0002 9.53345C15.1053 9.53345 15.2094 9.55415 15.3065 9.59438C15.4036 9.6346 15.4918 9.69356 15.5662 9.76789C15.6405 9.84222 15.6994 9.93046 15.7397 10.0276C15.7799 10.1247 15.8006 10.2288 15.8006 10.3339C15.8006 10.439 15.7799 10.5431 15.7397 10.6402C15.6994 10.7373 15.6405 10.8256 15.5662 10.8999L12.0002 14.4659L8.43415 10.8999C8.28404 10.7498 8.19971 10.5462 8.19971 10.3339C8.19971 10.1216 8.28404 9.918 8.43415 9.76789C8.58426 9.61778 8.78786 9.53345 9.00015 9.53345C9.21244 9.53345 9.41604 9.61778 9.56615 9.76789L12.0002 12.2029L14.4342 9.76789Z" fill="#333333"/>
</g>
<defs>
<clipPath id="clip0_1387_16264">
<rect width="24" height="24" fill="white"/>
</clipPath>
</defs>
</svg>
