<svg width="19" height="20" viewBox="0 0 19 20" fill="none" xmlns="http://www.w3.org/2000/svg">
<mask id="mask0_1387_15646" style="mask-type:luminance" maskUnits="userSpaceOnUse" x="-1" y="0" width="20" height="20">
<path d="M-1 0H18.305V19.305H-1V0Z" fill="white"/>
</mask>
<g mask="url(#mask0_1387_15646)">
<path d="M12.1621 5.04395V14.3269C12.1621 16.1609 10.8201 17.7929 8.99512 17.9679C6.89812 18.1699 5.14313 16.5289 5.14313 14.4759V3.63195C5.14313 2.48295 5.96812 1.43895 7.10812 1.32395C8.42412 1.19195 9.53012 2.21895 9.53012 3.50895V12.7219C9.52933 12.9543 9.43668 13.1769 9.27238 13.3412C9.10809 13.5055 8.88548 13.5982 8.65312 13.5989C8.42077 13.5982 8.19816 13.5055 8.03387 13.3412C7.86957 13.1769 7.77692 12.9543 7.77612 12.7219V5.04395C7.77612 4.68395 7.47813 4.38595 7.11812 4.38595C6.75812 4.38595 6.46012 4.68395 6.46012 5.04395V12.5979C6.46012 13.7469 7.28513 14.7909 8.42513 14.9049C9.74113 15.0369 10.8471 14.0099 10.8471 12.7199V3.65795C10.8471 1.82395 9.50513 0.191946 7.68012 0.0169457C7.19278 -0.0307657 6.70085 0.02402 6.23595 0.177781C5.77105 0.331542 5.34346 0.580877 4.98067 0.909758C4.61789 1.23864 4.32793 1.63979 4.12944 2.08743C3.93094 2.53506 3.82831 3.01928 3.82812 3.50895V14.2749C3.82812 16.7929 5.67113 19.0479 8.18013 19.2849C8.85084 19.3504 9.52783 19.2747 10.1676 19.0629C10.8073 18.851 11.3956 18.5076 11.8947 18.0548C12.3938 17.602 12.7926 17.0497 13.0655 16.4335C13.3383 15.8173 13.4792 15.1508 13.4791 14.4769V5.04395C13.4791 4.68395 13.1811 4.38595 12.8211 4.38595C12.4611 4.38595 12.1631 4.68395 12.1631 5.04395H12.1621Z" fill="#177DE6"/>
</g>
</svg>
