<svg width="16" height="16" viewBox="0 0 16 16" fill="none" xmlns="http://www.w3.org/2000/svg">
<path d="M7.996 0C3.576 0 0 3.58 0 8C0 12.42 3.576 16 7.996 16C12.416 16 16 12.42 16 8C16 3.58 12.416 0 7.996 0ZM8 14.4C6.30261 14.4 4.67475 13.7257 3.47452 12.5255C2.27428 11.3253 1.6 9.69739 1.6 8C1.6 6.30261 2.27428 4.67475 3.47452 3.47452C4.67475 2.27428 6.30261 1.6 8 1.6C9.69739 1.6 11.3253 2.27428 12.5255 3.47452C13.7257 4.67475 14.4 6.30261 14.4 8C14.4 9.69739 13.7257 11.3253 12.5255 12.5255C11.3253 13.7257 9.69739 14.4 8 14.4ZM8.4 8.2V4H7.2V8.8L11.396 11.32L12 10.336L8.4 8.2Z" fill="#04B70A"/>
</svg>
