<svg width="32" height="42" viewBox="0 0 32 42" fill="none" xmlns="http://www.w3.org/2000/svg">
<g clip-path="url(#clip0_1387_9325)">
<g clip-path="url(#clip1_1387_9325)">
<mask id="mask0_1387_9325" style="mask-type:luminance" maskUnits="userSpaceOnUse" x="0" y="0" width="32" height="42">
<path d="M32 0H0V42H32V0Z" fill="white"/>
</mask>
<g mask="url(#mask0_1387_9325)">
<path opacity="0.5" fill-rule="evenodd" clip-rule="evenodd" d="M0 4C0 1.79086 1.79086 0 4 0H20.6716C21.202 0 21.7107 0.210714 22.0858 0.585786L31.4142 9.91421C31.7893 10.2893 32 10.798 32 11.3284V38C32 40.2091 30.2091 42 28 42H4C1.79086 42 0 40.2091 0 38V4ZM28 41.2H4C2.23269 41.2 0.8 39.7673 0.8 38V4C0.8 2.23269 2.23269 0.8 4 0.8H20.6716C20.7893 0.8 20.9053 0.817307 21.0161 0.850512C21.0057 0.886309 21 0.924829 21 0.965682V6C21 8.76142 23.2386 11 26 11H31.0343C31.0752 11 31.1137 10.9943 31.1495 10.9839C31.1827 11.0947 31.2 11.2107 31.2 11.3284V38C31.2 39.7673 29.7673 41.2 28 41.2ZM21.8 1.33894L30.6406 10.2H26C23.6804 10.2 21.8 8.31959 21.8 6V1.33894Z" fill="#9F80FF"/>
<path d="M10.9497 19.7871L6 24.7368L7.41421 26.151L12.364 21.2013L10.9497 19.7871Z" fill="#9F80FF"/>
<path d="M12.3638 28.2725L7.41406 23.3228L5.99985 24.737L10.9496 29.6867L12.3638 28.2725Z" fill="#9F80FF"/>
<path d="M21.0503 19.7871L26 24.7368L24.5858 26.151L19.636 21.2013L21.0503 19.7871Z" fill="#9F80FF"/>
<path d="M19.6362 28.2725L24.5859 23.3228L26.0002 24.737L21.0504 29.6867L19.6362 28.2725Z" fill="#9F80FF"/>
<path d="M14.5457 31.9199L19.334 18.7642L17.4546 18.0801L12.6663 31.2358L14.5457 31.9199Z" fill="#9F80FF"/>
</g>
</g>
</g>
<defs>
<clipPath id="clip0_1387_9325">
<rect width="32" height="42" fill="white"/>
</clipPath>
<clipPath id="clip1_1387_9325">
<rect width="32" height="42" fill="white"/>
</clipPath>
</defs>
</svg>
