<svg width="36" height="36" viewBox="0 0 36 36" fill="none" xmlns="http://www.w3.org/2000/svg">
<rect width="36" height="36" rx="18" fill="#D7F7E9"/>
<g clip-path="url(#clip0_1387_6714)">
<g clip-path="url(#clip1_1387_6714)">
<path d="M22.3601 13.5908H13.313V14.716H22.3601V13.5908Z" fill="#29B72C"/>
<path d="M22.3601 16.4775H13.313V17.6027H22.3601V16.4775Z" fill="#29B72C"/>
<path fill-rule="evenodd" clip-rule="evenodd" d="M18.9001 26.5128H9.38538V7.20895H15.7039C15.936 6.24552 16.801 5.53174 17.8347 5.53174C18.872 5.53174 19.7335 6.24552 19.9655 7.20895H26.2841V19.4593C25.9219 19.3292 25.5457 19.2343 25.1589 19.178V8.33413H22.3425V11.7237H13.3305V8.33413H10.5141V25.3841H18.6716C18.7103 25.7744 18.7876 26.1506 18.9001 26.5128ZM16.9135 7.20895C16.8291 7.36015 16.7729 7.53596 16.7729 7.72232V8.33765V8.34819H14.4592V10.5985H21.2173V8.34468H18.9037V8.33413V7.72232C18.9037 7.53596 18.8544 7.36015 18.77 7.20895C18.5907 6.88195 18.2391 6.65691 17.8418 6.65691C17.4444 6.65691 17.0928 6.88195 16.9135 7.20895Z" fill="#29B72C"/>
<path fill-rule="evenodd" clip-rule="evenodd" d="M25.159 20.3208C25.5598 20.3876 25.936 20.5107 26.2841 20.683C27.8277 21.4214 28.8967 22.9931 28.8967 24.8109C28.9002 27.3285 26.8467 29.3749 24.3291 29.3749C22.4128 29.3749 20.7708 28.1935 20.0992 26.5128C19.9515 26.1576 19.8531 25.7814 19.8003 25.3876C19.7792 25.2012 19.7652 25.0114 19.7652 24.8145C19.7652 22.2969 21.8151 20.247 24.3291 20.247C24.614 20.2434 24.8952 20.2716 25.159 20.3208ZM18.6681 25.3841C18.7068 25.7744 18.7877 26.1506 18.9002 26.5093C19.628 28.8229 21.7834 30.5001 24.3291 30.5001C27.4726 30.5001 30.0253 27.9474 30.0253 24.8109C30.0253 22.3567 28.4642 20.261 26.2841 19.4593C25.922 19.3292 25.5457 19.2343 25.159 19.178C24.8882 19.1394 24.614 19.1147 24.3327 19.1147C21.1962 19.1147 18.6435 21.671 18.6435 24.8109C18.64 25.0008 18.654 25.1942 18.6681 25.3841Z" fill="#FFB906"/>
<path d="M24.4978 26.3931H24.2412C24.0583 26.3931 23.9106 26.5407 23.9106 26.7236V27.0787C23.9106 27.2616 24.0583 27.4092 24.2412 27.4092H24.4978C24.6807 27.4092 24.8284 27.2616 24.8284 27.0787V26.7236C24.8284 26.5372 24.6807 26.3931 24.4978 26.3931Z" fill="#29B72C"/>
<path d="M22.6836 23.6364L23.1583 23.6962C23.3095 23.7138 23.4536 23.6294 23.5064 23.4852C23.5732 23.3059 23.6716 23.1653 23.7912 23.0598C23.9635 22.9156 24.1815 22.8418 24.4381 22.8418C24.7054 22.8418 24.9163 22.9121 25.0746 23.0527C25.2328 23.1934 25.3102 23.3622 25.3102 23.5591C25.3102 23.6997 25.2644 23.8298 25.1765 23.9458C25.1203 24.0197 24.941 24.1779 24.6456 24.417C24.3502 24.6561 24.1533 24.8741 24.0549 25.064C23.9529 25.2609 23.9178 25.4789 23.9107 25.6969C23.9037 25.8833 24.0514 26.038 24.2412 26.038H24.5085C24.6808 26.038 24.8214 25.9079 24.8355 25.7356C24.846 25.6125 24.8671 25.5211 24.8988 25.4578C24.9515 25.3488 25.0851 25.2082 25.2961 25.0288C25.711 24.6878 25.9782 24.417 26.1048 24.2166C26.2314 24.0162 26.2947 23.8052 26.2947 23.5837C26.2947 23.1793 26.1224 22.8277 25.7778 22.5218C25.4332 22.2194 24.9726 22.0647 24.3924 22.0647C23.8404 22.0647 23.3938 22.2159 23.0528 22.5148C22.7644 22.7714 22.5886 23.0738 22.5253 23.4219C22.5113 23.5309 22.5816 23.6259 22.6836 23.6364Z" fill="#29B72C"/>
</g>
</g>
<defs>
<clipPath id="clip0_1387_6714">
<rect width="25" height="25" fill="white" transform="translate(5.5 5.5)"/>
</clipPath>
<clipPath id="clip1_1387_6714">
<rect width="17.2293" height="25" fill="white" transform="translate(9.38538 5.5)"/>
</clipPath>
</defs>
</svg>
