<svg width="36" height="36" viewBox="0 0 36 36" fill="none" xmlns="http://www.w3.org/2000/svg">
<rect width="36" height="36" rx="18" fill="#D7F7E9"/>
<g clip-path="url(#clip0_1387_7429)">
<g clip-path="url(#clip1_1387_7429)">
<g clip-path="url(#clip2_1387_7429)">
<path d="M17.8446 18.9206L15.8711 16.8535L16.5397 16.2107L17.8575 17.5931L20.9325 14.4827L21.5914 15.1351L17.8446 18.9206Z" fill="#29B72C"/>
<path d="M16.4238 24.2985C15.3062 24.2985 14.376 23.491 14.1822 22.4316L12.3379 22.451L13.0162 11.7048L24.46 11.7824L23.6105 22.3379L18.6751 22.3896C18.4975 23.4684 17.5543 24.2985 16.4238 24.2985ZM15.0866 21.4949L15.0672 22.0569C15.0704 22.7643 15.6745 23.3715 16.4206 23.3715C17.1667 23.3715 17.7739 22.7643 17.7739 22.0181L17.7642 21.9471L17.7416 21.4658L22.7546 21.4141L23.4555 12.6997L13.885 12.6351L13.3263 21.511L15.0866 21.4949Z" fill="#29B72C"/>
<path d="M16.4239 24.205C15.1675 24.205 14.1436 23.1811 14.1436 21.9246C14.1436 20.6681 15.1675 19.6475 16.4239 19.6475C17.6804 19.6475 18.7043 20.6681 18.7043 21.9246C18.701 23.1811 17.6804 24.205 16.4239 24.205ZM16.4239 20.5745C15.6778 20.5745 15.0706 21.1817 15.0706 21.9246C15.0706 22.6707 15.6778 23.278 16.4239 23.278C17.17 23.278 17.7773 22.6707 17.7773 21.9246C17.774 21.1817 17.1668 20.5745 16.4239 20.5745Z" fill="#29B72C"/>
<path d="M26.3751 24.205C25.1186 24.205 24.0947 23.1811 24.0947 21.9246C24.0947 20.6681 25.1186 19.6475 26.3751 19.6475C27.6315 19.6475 28.6555 20.6681 28.6555 21.9246C28.6555 23.1811 27.6315 24.205 26.3751 24.205ZM26.3751 20.5745C25.629 20.5745 25.0217 21.1817 25.0217 21.9246C25.0217 22.6707 25.629 23.278 26.3751 23.278C27.1212 23.278 27.7284 22.6707 27.7284 21.9246C27.7284 21.1817 27.1212 20.5745 26.3751 20.5745Z" fill="#29B72C"/>
<path d="M26.3881 24.2986C25.2576 24.2986 24.3177 23.4717 24.14 22.3896H22.6865L23.5392 14.1597H29.4662L30.4901 16.7533L30.1058 22.3896H28.6394C28.4585 23.4717 27.5186 24.2986 26.3881 24.2986ZM23.7137 21.4626H25.0735L25.0379 22.0311C25.0379 22.7643 25.6452 23.3716 26.3881 23.3716C27.131 23.3716 27.7414 22.7643 27.7414 22.0182L27.7317 21.9471L27.7059 21.4594H29.2369L29.547 16.8955L28.8332 15.0834H24.3726L23.7137 21.4626Z" fill="#29B72C"/>
<path d="M11.0132 13.8689H6.49121V14.7959H11.0132V13.8689Z" fill="#29B72C"/>
<path d="M11.0132 18.7656H6.49121V19.6926H11.0132V18.7656Z" fill="#29B72C"/>
<path d="M11.0136 16.4756H5.50977V17.4026H11.0136V16.4756Z" fill="#29B72C"/>
</g>
</g>
</g>
<defs>
<clipPath id="clip0_1387_7429">
<rect width="25" height="25" fill="white" transform="translate(5.5 5.5)"/>
</clipPath>
<clipPath id="clip1_1387_7429">
<rect width="25" height="25" fill="white" transform="translate(5.5 5.5)"/>
</clipPath>
<clipPath id="clip2_1387_7429">
<rect width="25" height="12.5969" fill="white" transform="translate(5.5 11.7017)"/>
</clipPath>
</defs>
</svg>
