<svg width="36" height="36" viewBox="0 0 36 36" fill="none" xmlns="http://www.w3.org/2000/svg">
<rect width="36" height="36" rx="18" fill="#D7F7E9"/>
<g clip-path="url(#clip0_1387_10826)">
<g clip-path="url(#clip1_1387_10826)">
<g clip-path="url(#clip2_1387_10826)">
<path d="M27.1356 22.2407H12.92L9.66917 9.81617H5.50391V8.26416H10.8646L14.1197 20.6845H25.9863L28.9854 10.8858L30.4703 11.3388L27.1356 22.2407Z" fill="#29B72C"/>
<path d="M24.6569 29.64C23.1175 29.64 21.8633 28.3858 21.8633 26.8464C21.8633 25.3069 23.1175 24.0527 24.6569 24.0527C26.1963 24.0527 27.4505 25.3069 27.4505 26.8464C27.4505 28.3858 26.1963 29.64 24.6569 29.64ZM24.6569 25.2943C23.8012 25.2943 23.1049 25.9907 23.1049 26.8464C23.1049 27.7021 23.8012 28.3984 24.6569 28.3984C25.5126 28.3984 26.2089 27.7021 26.2089 26.8464C26.2089 25.9907 25.5126 25.2943 24.6569 25.2943Z" fill="#29B72C"/>
<path d="M14.9128 29.64C13.3733 29.64 12.1191 28.3858 12.1191 26.8464C12.1191 25.3069 13.3733 24.0527 14.9128 24.0527C16.4522 24.0527 17.7064 25.3069 17.7064 26.8464C17.7064 28.3858 16.4564 29.64 14.9128 29.64ZM14.9128 25.2943C14.0571 25.2943 13.3608 25.9907 13.3608 26.8464C13.3608 27.7021 14.0571 28.3984 14.9128 28.3984C15.7685 28.3984 16.4648 27.7021 16.4648 26.8464C16.4648 25.9907 15.7685 25.2943 14.9128 25.2943Z" fill="#29B72C"/>
<path d="M25.2409 11.3807C25.2241 11.2213 25.0395 11.1039 24.8801 11.1039C24.3684 11.1039 23.9112 10.8019 23.7224 10.3363C23.5253 9.85808 23.6511 9.3002 24.037 8.95204C24.1587 8.84298 24.1712 8.65842 24.0706 8.52839C23.8063 8.19282 23.5085 7.895 23.1813 7.63074C23.0555 7.53006 22.8667 7.54265 22.7576 7.66429C22.4221 8.03342 21.8222 8.17184 21.3608 7.97889C20.8785 7.77755 20.5764 7.28678 20.6058 6.76245C20.6142 6.59886 20.4967 6.45624 20.329 6.43527C19.9095 6.38493 19.49 6.38493 19.0706 6.43107C18.907 6.44785 18.7895 6.59047 18.7937 6.74986C18.8105 7.27 18.5043 7.74818 18.0261 7.94533C17.5689 8.13409 16.9732 7.99567 16.6377 7.63074C16.5286 7.50909 16.3441 7.49651 16.214 7.59718C15.8785 7.86144 15.5722 8.16345 15.308 8.49483C15.2031 8.62486 15.2199 8.80943 15.3415 8.91849C15.7316 9.27084 15.8575 9.83292 15.6561 10.3153C15.4632 10.7767 14.985 11.0745 14.4355 11.0745C14.2593 11.0703 14.1335 11.1878 14.1125 11.3514C14.0622 11.7708 14.0622 12.2029 14.1083 12.6265C14.1251 12.7859 14.3139 12.9034 14.4774 12.9034C14.964 12.8908 15.4338 13.1928 15.631 13.671C15.8281 14.1492 15.7023 14.7029 15.3164 15.0552C15.1947 15.1643 15.1821 15.3489 15.2828 15.4789C15.5429 15.8103 15.8407 16.1123 16.1679 16.3765C16.2979 16.4814 16.4825 16.4646 16.5957 16.343C16.9313 15.9739 17.5311 15.8354 17.9925 16.0284C18.4749 16.2297 18.7811 16.7205 18.7518 17.2448C18.7434 17.4084 18.865 17.5552 19.0286 17.572C19.2425 17.5972 19.4565 17.6098 19.6746 17.6098C19.8801 17.6098 20.0857 17.5972 20.2912 17.5762C20.4548 17.5594 20.5722 17.4168 20.568 17.2574C20.5513 16.7373 20.8575 16.2591 21.3357 16.0619C21.7971 15.8732 22.3885 16.0116 22.7241 16.3765C22.8331 16.4982 23.0177 16.5108 23.1477 16.4101C23.4833 16.1458 23.7895 15.848 24.0538 15.5124C24.1587 15.3824 24.1419 15.1978 24.0202 15.0888C23.6301 14.7364 23.5043 14.1744 23.7056 13.692C23.8944 13.239 24.3558 12.9327 24.8508 12.9327H24.9221C25.0815 12.9453 25.2325 12.8237 25.2493 12.6601C25.2912 12.2322 25.2912 11.8044 25.2409 11.3807ZM19.6872 13.8849C18.6553 13.8849 17.8206 13.046 17.8206 12.0183C17.8206 10.9864 18.6595 10.1517 19.6872 10.1517C20.7191 10.1517 21.5538 10.9906 21.5538 12.0183C21.5538 13.046 20.7149 13.8849 19.6872 13.8849Z" fill="#FFB906"/>
</g>
</g>
</g>
<defs>
<clipPath id="clip0_1387_10826">
<rect width="25" height="25" fill="white" transform="translate(5.5 5.5)"/>
</clipPath>
<clipPath id="clip1_1387_10826">
<rect width="25" height="25" fill="white" transform="translate(5.5 5.5)"/>
</clipPath>
<clipPath id="clip2_1387_10826">
<rect width="25" height="23.2802" fill="white" transform="translate(5.5 6.35986)"/>
</clipPath>
</defs>
</svg>
