<svg width="22" height="22" viewBox="0 0 22 22" fill="none" xmlns="http://www.w3.org/2000/svg">
<path d="M11 0C9.48177 0 8.05664 0.286459 6.72461 0.859375C5.39258 1.44662 4.22884 2.23796 3.2334 3.2334C2.23796 4.22884 1.44661 5.39258 0.859375 6.72461C0.286458 8.05664 0 9.48177 0 11C0 12.5182 0.286458 13.9434 0.859375 15.2754C1.44661 16.6074 2.23796 17.7712 3.2334 18.7666C4.22884 19.762 5.39258 20.5534 6.72461 21.1406C8.05664 21.7135 9.48177 22 11 22C12.5182 22 13.9434 21.7135 15.2754 21.1406C16.6074 20.5534 17.7712 19.762 18.7666 18.7666C19.762 17.7712 20.5534 16.6074 21.1406 15.2754C21.7135 13.9434 22 12.5182 22 11C22 9.48177 21.7135 8.05664 21.1406 6.72461C20.5534 5.39258 19.762 4.22884 18.7666 3.2334C17.7712 2.23796 16.6074 1.44662 15.2754 0.859375C13.9434 0.286459 12.5182 0 11 0ZM11 21.0332C9.61068 21.0332 8.30729 20.7754 7.08984 20.2598C5.8724 19.7298 4.80892 19.0101 3.89941 18.1006C2.98991 17.1911 2.27018 16.1276 1.74023 14.9102C1.22461 13.6927 0.966797 12.3893 0.966797 11C0.966797 9.61068 1.22461 8.30729 1.74023 7.08984C2.27018 5.8724 2.98991 4.80892 3.89941 3.89941C4.80892 2.98991 5.8724 2.27018 7.08984 1.74023C8.30729 1.22461 9.61068 0.966797 11 0.966797C12.3893 0.966797 13.6927 1.22461 14.9102 1.74023C16.1276 2.27018 17.1911 2.98991 18.1006 3.89941C19.0101 4.80892 19.7298 5.8724 20.2598 7.08984C20.7754 8.30729 21.0332 9.61068 21.0332 11C21.0332 12.3893 20.7754 13.6927 20.2598 14.9102C19.7298 16.1276 19.0101 17.1911 18.1006 18.1006C17.1911 19.0101 16.1276 19.7298 14.9102 20.2598C13.6927 20.7754 12.3893 21.0332 11 21.0332ZM7.17578 10.5273C7.57682 10.5273 7.91699 10.3877 8.19629 10.1084C8.47559 9.8291 8.61523 9.48893 8.61523 9.08789C8.61523 8.68685 8.47559 8.34668 8.19629 8.06738C7.91699 7.78809 7.57682 7.64844 7.17578 7.64844C6.77474 7.64844 6.43457 7.78809 6.15527 8.06738C5.87598 8.34668 5.73633 8.68685 5.73633 9.08789C5.73633 9.48893 5.87598 9.8291 6.15527 10.1084C6.43457 10.3877 6.77474 10.5273 7.17578 10.5273ZM7.17578 8.61523C7.30469 8.61523 7.41569 8.66178 7.50879 8.75488C7.60189 8.84798 7.64844 8.95898 7.64844 9.08789C7.64844 9.2168 7.60189 9.3278 7.50879 9.4209C7.41569 9.514 7.30469 9.56055 7.17578 9.56055C7.04688 9.56055 6.93587 9.514 6.84277 9.4209C6.74967 9.3278 6.70312 9.2168 6.70312 9.08789C6.70312 8.95898 6.74967 8.84798 6.84277 8.75488C6.93587 8.66178 7.04688 8.61523 7.17578 8.61523ZM14.8242 7.64844C14.4232 7.64844 14.083 7.78809 13.8037 8.06738C13.5244 8.34668 13.3848 8.68685 13.3848 9.08789C13.3848 9.48893 13.5244 9.8291 13.8037 10.1084C14.083 10.3877 14.4232 10.5273 14.8242 10.5273C15.2253 10.5273 15.5654 10.3877 15.8447 10.1084C16.124 9.8291 16.2637 9.48893 16.2637 9.08789C16.2637 8.68685 16.124 8.34668 15.8447 8.06738C15.5654 7.78809 15.2253 7.64844 14.8242 7.64844ZM14.8242 9.56055C14.6953 9.56055 14.5843 9.514 14.4912 9.4209C14.3981 9.3278 14.3516 9.2168 14.3516 9.08789C14.3516 8.95898 14.3981 8.84798 14.4912 8.75488C14.5843 8.66178 14.6953 8.61523 14.8242 8.61523C14.9531 8.61523 15.0641 8.66178 15.1572 8.75488C15.2503 8.84798 15.2969 8.95898 15.2969 9.08789C15.2969 9.2168 15.2503 9.3278 15.1572 9.4209C15.0641 9.514 14.9531 9.56055 14.8242 9.56055ZM15.791 13.3848H6.20898C6.08008 13.3848 5.96908 13.4313 5.87598 13.5244C5.78288 13.6175 5.73633 13.7357 5.73633 13.8789C5.73633 14.0078 5.78288 14.1188 5.87598 14.2119C5.96908 14.305 6.08008 14.3516 6.20898 14.3516H15.791C15.9199 14.3516 16.0309 14.305 16.124 14.2119C16.2171 14.1188 16.2637 14.0078 16.2637 13.8789C16.2637 13.7357 16.2171 13.6175 16.124 13.5244C16.0309 13.4313 15.9199 13.3848 15.791 13.3848Z" fill="#FFA800"/>
</svg>
