<svg width="36" height="36" viewBox="0 0 36 36" fill="none" xmlns="http://www.w3.org/2000/svg">
<rect width="36" height="36" rx="18" fill="#DDCECE"/>
<g clip-path="url(#clip0_1387_12364)">
<g clip-path="url(#clip1_1387_12364)">
<g clip-path="url(#clip2_1387_12364)">
<path d="M27.156 22.2444H12.9263L9.67087 9.81397H5.50586V8.2583H10.8736L14.1241 20.6937H26.0078L29.0098 10.8826L30.4959 11.3348L27.156 22.2444Z" fill="#E24949"/>
<path d="M24.6752 29.655C23.1344 29.655 21.877 28.4025 21.877 26.8568C21.877 25.316 23.1294 24.0586 24.6752 24.0586C26.2209 24.0586 27.4734 25.3111 27.4734 26.8568C27.4734 28.4025 26.2159 29.655 24.6752 29.655ZM24.6752 25.3011C23.8203 25.3011 23.1195 25.997 23.1195 26.8568C23.1195 27.7117 23.8153 28.4125 24.6752 28.4125C25.535 28.4125 26.2308 27.7166 26.2308 26.8568C26.2259 26.0019 25.53 25.3011 24.6752 25.3011Z" fill="#E24949"/>
<path d="M14.9232 29.655C13.3825 29.655 12.125 28.4025 12.125 26.8568C12.125 25.316 13.3775 24.0586 14.9232 24.0586C16.4689 24.0586 17.7214 25.3111 17.7214 26.8568C17.7165 28.4025 16.464 29.655 14.9232 29.655ZM14.9232 25.3011C14.0683 25.3011 13.3675 25.997 13.3675 26.8568C13.3675 27.7117 14.0634 28.4125 14.9232 28.4125C15.7781 28.4125 16.4789 27.7166 16.4789 26.8568C16.4739 26.0019 15.7781 25.3011 14.9232 25.3011Z" fill="#E24949"/>
<path d="M25.2623 11.3793C25.2424 11.2203 25.0585 11.101 24.8995 11.101C24.3875 11.101 23.9303 10.7978 23.7364 10.3306C23.5426 9.85349 23.6668 9.29683 24.0496 8.94395C24.1688 8.8346 24.1837 8.65071 24.0843 8.52148C23.8209 8.18848 23.5227 7.8853 23.1947 7.62685C23.0655 7.52247 22.8816 7.53739 22.7672 7.66164C22.4342 8.02943 21.8328 8.1686 21.3706 7.97476C20.8885 7.77098 20.5853 7.28391 20.6152 6.75707C20.6251 6.59305 20.5058 6.44892 20.3418 6.42904C19.9243 6.37933 19.5018 6.37933 19.0794 6.42407C18.9154 6.44395 18.7961 6.58311 18.801 6.74713C18.8209 7.269 18.5128 7.74613 18.0356 7.94494C17.5784 8.13381 16.982 7.99464 16.649 7.62685C16.5396 7.50756 16.3557 7.49265 16.2265 7.59206C15.8885 7.85548 15.5853 8.15866 15.3219 8.48669C15.2175 8.61591 15.2325 8.79981 15.3567 8.91412C15.7494 9.26701 15.8736 9.82864 15.6698 10.3107C15.476 10.773 14.9989 11.0662 14.4521 11.0662C14.2732 11.0612 14.149 11.1805 14.1291 11.3396C14.0794 11.762 14.0794 12.1895 14.1291 12.6169C14.149 12.776 14.3378 12.8903 14.4969 12.8903C14.9839 12.8754 15.4561 13.1785 15.6499 13.6606C15.8438 14.1378 15.7195 14.6944 15.3368 15.0473C15.2175 15.1567 15.2026 15.3406 15.302 15.4698C15.5605 15.8028 15.8637 16.106 16.1867 16.3694C16.316 16.4738 16.4998 16.4589 16.6142 16.3346C16.9472 15.9618 17.5486 15.8276 18.0108 16.0215C18.4929 16.2253 18.801 16.7123 18.7712 17.2392C18.7613 17.4032 18.8806 17.5473 19.0446 17.5672C19.2583 17.5921 19.472 17.607 19.6907 17.607C19.8945 17.607 20.1032 17.597 20.307 17.5722C20.471 17.5523 20.5903 17.4131 20.5853 17.2491C20.5655 16.7272 20.8736 16.2501 21.3507 16.0513C21.813 15.8624 22.4044 16.0016 22.7374 16.3694C22.8468 16.4887 23.0307 16.5036 23.1599 16.4042C23.4929 16.1408 23.801 15.8376 24.0645 15.5096C24.1688 15.3803 24.1539 15.1964 24.0297 15.0821C23.637 14.7292 23.5128 14.1676 23.7165 13.6855C23.9054 13.2332 24.3676 12.9251 24.8647 12.9251H24.9342C25.0933 12.94 25.2424 12.8157 25.2623 12.6517C25.307 12.2292 25.307 11.8018 25.2623 11.3793ZM19.7006 13.8843C18.6718 13.8843 17.8319 13.0443 17.8319 12.0155C17.8319 10.9867 18.6718 10.1467 19.7006 10.1467C20.7295 10.1467 21.5694 10.9867 21.5694 12.0155C21.5694 13.0443 20.7295 13.8843 19.7006 13.8843Z" fill="#FFB906"/>
</g>
</g>
</g>
<defs>
<clipPath id="clip0_1387_12364">
<rect width="25" height="25" fill="white" transform="translate(5.5 5.5)"/>
</clipPath>
<clipPath id="clip1_1387_12364">
<rect width="25" height="25" fill="white" transform="translate(5.5 5.5)"/>
</clipPath>
<clipPath id="clip2_1387_12364">
<rect width="25" height="23.3101" fill="white" transform="translate(5.5 6.34473)"/>
</clipPath>
</defs>
</svg>
