<svg width="36" height="36" viewBox="0 0 36 36" fill="none" xmlns="http://www.w3.org/2000/svg">
<rect width="36" height="36" rx="18" fill="#D7F7E9"/>
<g clip-path="url(#clip0_1387_6686)">
<g clip-path="url(#clip1_1387_6686)">
<path d="M22.2365 13.5701H13.1769V14.6972H22.2365V13.5701Z" fill="#29B72C"/>
<path d="M22.2365 16.46H13.1769V17.5871H22.2365V16.46Z" fill="#29B72C"/>
<path d="M24.2188 27.0629L22.2365 24.9856L23.0523 24.2057L24.2319 25.4443L27.1021 22.5413L27.9049 23.3342L24.2188 27.0629Z" fill="#29B72C"/>
<path fill-rule="evenodd" clip-rule="evenodd" d="M20.5392 26.506C21.2109 28.1868 22.8557 29.3696 24.7758 29.3696C27.2954 29.3696 29.3498 27.3218 29.3498 24.8021C29.3498 22.9804 28.2784 21.4077 26.7319 20.6672C26.3813 20.4968 26.0045 20.3723 25.6047 20.3067C25.3393 20.2576 25.0576 20.2281 24.7758 20.2281C22.2594 20.2281 20.2083 22.2825 20.2083 24.8021C20.2083 24.9987 20.2181 25.1921 20.2411 25.3788C20.2902 25.7753 20.3918 26.1521 20.5392 26.506ZM19.1041 25.3788C19.1434 25.7687 19.222 26.1455 19.3367 26.506C20.0641 28.8192 22.2234 30.5001 24.7725 30.5001C27.918 30.5001 30.4737 27.9444 30.4737 24.8054C30.4737 22.348 28.9108 20.2478 26.7286 19.4483C26.3682 19.3172 25.9914 19.2222 25.6015 19.1665C25.3295 19.1272 25.0543 19.1042 24.7725 19.1042C21.6303 19.1042 19.0779 21.6632 19.0779 24.8054C19.0779 24.9955 19.0877 25.1888 19.1041 25.3788Z" fill="#FFB906"/>
<path fill-rule="evenodd" clip-rule="evenodd" d="M19.1042 25.3788H10.939V8.30799H13.7601V11.7025H22.7837V8.30799H25.6015V19.1632C25.9915 19.2189 26.3683 19.3139 26.7287 19.445V7.18086H20.4017C20.1723 6.21756 19.3073 5.5 18.2719 5.5C17.2398 5.5 16.3715 6.21756 16.1389 7.18086H9.81189V26.5059H19.3368C19.2254 26.1455 19.1435 25.7687 19.1042 25.3788ZM17.3447 7.18086C17.2595 7.33159 17.2038 7.50852 17.2038 7.69528V8.31127V8.3211H14.8873V10.5754H21.6533V8.3211H19.3368V8.31127V7.69528C19.3368 7.50852 19.2877 7.33486 19.2025 7.18086C19.0223 6.85321 18.6717 6.62713 18.2719 6.62713C17.8722 6.62713 17.5249 6.85321 17.3447 7.18086Z" fill="#29B72C"/>
</g>
</g>
<defs>
<clipPath id="clip0_1387_6686">
<rect width="25" height="25" fill="white" transform="translate(5.5 5.5)"/>
</clipPath>
<clipPath id="clip1_1387_6686">
<rect width="16.3827" height="25" fill="white" transform="translate(9.80859 5.5)"/>
</clipPath>
</defs>
</svg>
