<svg width="24" height="24" viewBox="0 0 24 24" fill="none" xmlns="http://www.w3.org/2000/svg">
<g clip-path="url(#clip0_1387_16198)">
<path fill-rule="evenodd" clip-rule="evenodd" d="M16.7431 7.75688C17.8532 8.8852 18.4725 10.4064 18.466 11.9893C18.4596 13.5721 17.8279 15.0882 16.7087 16.2075C15.5895 17.3267 14.0733 17.9583 12.4905 17.9648C10.9077 17.9712 9.38642 17.352 8.25811 16.2419C7.14802 15.1136 6.52876 13.5923 6.53521 12.0095C6.54165 10.4267 7.17328 8.91053 8.29252 7.79129C9.41175 6.67206 10.9279 6.04043 12.5107 6.03399C14.0935 6.02754 15.6148 6.6468 16.7431 7.75688ZM9.17211 11.9999C9.17211 11.8673 9.22478 11.7401 9.31855 11.6463C9.41232 11.5526 9.5395 11.4999 9.67211 11.4999H12.0001V9.17188C12.0001 9.03928 12.0528 8.9121 12.1466 8.81833C12.2403 8.72456 12.3675 8.67188 12.5001 8.67188C12.6327 8.67188 12.7599 8.72456 12.8537 8.81833C12.9474 8.9121 13.0001 9.03928 13.0001 9.17188V11.4999H15.3291C15.4617 11.4999 15.5889 11.5526 15.6827 11.6463C15.7764 11.7401 15.8291 11.8673 15.8291 11.9999C15.8291 12.1325 15.7764 12.2597 15.6827 12.3534C15.5889 12.4472 15.4617 12.4999 15.3291 12.4999H13.0001V14.8279C13.0001 14.9605 12.9474 15.0877 12.8537 15.1814C12.7599 15.2752 12.6327 15.3279 12.5001 15.3279C12.3675 15.3279 12.2403 15.2752 12.1466 15.1814C12.0528 15.0877 12.0001 14.9605 12.0001 14.8279V12.4999H9.67211C9.5395 12.4999 9.41232 12.4472 9.31855 12.3534C9.22478 12.2597 9.17211 12.1325 9.17211 11.9999Z" fill="#04B70A"/>
</g>
<defs>
<clipPath id="clip0_1387_16198">
<rect width="24" height="24" fill="white"/>
</clipPath>
</defs>
</svg>
