<svg width="16" height="16" viewBox="0 0 16 16" fill="none" xmlns="http://www.w3.org/2000/svg">
<path d="M1.31918 12.773H3.54618V14.682C3.54618 14.775 3.57618 14.851 3.63618 14.91C3.66618 14.9398 3.70198 14.9632 3.74136 14.9787C3.78075 14.9941 3.82288 15.0014 3.86518 15H5.52518C5.61118 15 5.68617 14.97 5.74918 14.91C5.78011 14.8808 5.80448 14.8454 5.82069 14.8061C5.83689 14.7668 5.84456 14.7245 5.84317 14.682V12.773H10.8642C10.9062 12.7741 10.9481 12.7666 10.9872 12.751C11.0262 12.7354 11.0617 12.712 11.0915 12.6823C11.1212 12.6525 11.1446 12.617 11.1602 12.5779C11.1758 12.5389 11.1833 12.497 11.1822 12.455V11.182C11.1836 11.1399 11.1764 11.098 11.1611 11.0588C11.1458 11.0196 11.1227 10.9839 11.0932 10.954C11.0632 10.9241 11.0274 10.9008 10.988 10.8853C10.9486 10.8698 10.9065 10.8625 10.8642 10.864H5.84317V9.68997H9.22418C10.5502 9.68997 11.6322 9.28596 12.4702 8.47697C13.3082 7.66797 13.7282 6.62496 13.7282 5.34496C13.7282 4.06497 13.3092 3.02197 12.4702 2.21297C11.6312 1.40397 10.5492 0.999965 9.22318 0.999965H3.86418C3.82195 0.998412 3.77986 1.00551 3.74048 1.02081C3.7011 1.03612 3.66527 1.05931 3.63518 1.08897C3.60534 1.11897 3.58196 1.15477 3.56648 1.19415C3.551 1.23354 3.54375 1.27567 3.54518 1.31797V7.57197H1.31918C1.27713 7.57143 1.23541 7.57931 1.19647 7.59515C1.15752 7.61099 1.12214 7.63447 1.09241 7.6642C1.06268 7.69393 1.0392 7.72931 1.02336 7.76826C1.00752 7.8072 0.999638 7.84892 1.00018 7.89096V9.37197C0.998753 9.41426 1.006 9.45639 1.02148 9.49578C1.03696 9.53516 1.06034 9.57096 1.09018 9.60097C1.15018 9.66097 1.22618 9.68997 1.31918 9.68997H3.54618V10.863H1.31918C1.27688 10.8615 1.23475 10.8688 1.19536 10.8843C1.15598 10.8998 1.12018 10.9231 1.09018 10.953C1.06046 10.9829 1.03716 11.0185 1.02168 11.0577C1.00621 11.0969 0.99889 11.1388 1.00018 11.181V12.454C1.00018 12.547 1.03018 12.623 1.09018 12.683C1.15018 12.743 1.22618 12.773 1.31918 12.773ZM5.84317 3.11897H9.02518C9.72818 3.11897 10.2942 3.32397 10.7252 3.73497C11.1562 4.14597 11.3712 4.68297 11.3712 5.34597C11.3712 6.00897 11.1552 6.54597 10.7252 6.95696C10.2952 7.36796 9.72717 7.57397 9.02518 7.57397H5.84317V3.11897Z" fill="#04B70A"/>
</svg>
