<svg width="34" height="34" viewBox="0 0 34 34" fill="none" xmlns="http://www.w3.org/2000/svg">
<g clip-path="url(#clip0_1387_7468)">
<g clip-path="url(#clip1_1387_7468)">
<g clip-path="url(#clip2_1387_7468)">
<path d="M34 0H0V34H34V0Z" fill="white"/>
<path d="M17 28C23.0751 28 28 23.0751 28 17C28 10.9249 23.0751 6 17 6C10.9249 6 6 10.9249 6 17C6 23.0751 10.9249 28 17 28Z" stroke="#999999" stroke-width="2"/>
<path d="M13.2289 16.6572C13.9863 16.6572 14.6003 16.0432 14.6003 15.2857C14.6003 14.5283 13.9863 13.9143 13.2289 13.9143C12.4714 13.9143 11.8574 14.5283 11.8574 15.2857C11.8574 16.0432 12.4714 16.6572 13.2289 16.6572Z" fill="#999999"/>
<path d="M12.2002 21.1143C13.2287 22.8286 14.8412 23.8572 17.0002 23.8572C19.1591 23.8572 20.7716 22.8286 21.8002 21.1143" stroke="#999999" stroke-width="2" stroke-linecap="round" stroke-linejoin="round"/>
<path d="M20.7718 16.6572C21.5292 16.6572 22.1433 16.0432 22.1433 15.2857C22.1433 14.5283 21.5292 13.9143 20.7718 13.9143C20.0144 13.9143 19.4004 14.5283 19.4004 15.2857C19.4004 16.0432 20.0144 16.6572 20.7718 16.6572Z" fill="#999999"/>
</g>
</g>
</g>
<defs>
<clipPath id="clip0_1387_7468">
<rect width="34" height="34" fill="white"/>
</clipPath>
<clipPath id="clip1_1387_7468">
<rect width="34" height="34" fill="white"/>
</clipPath>
<clipPath id="clip2_1387_7468">
<rect width="34" height="34" fill="white"/>
</clipPath>
</defs>
</svg>
