<svg width="16" height="16" viewBox="0 0 16 16" fill="none" xmlns="http://www.w3.org/2000/svg">
<g clip-path="url(#clip0_1606_63090)">
<path d="M6.99996 1.33301C8.06369 1.33333 9.10588 1.63293 10.0074 2.19757C10.9089 2.7622 11.6334 3.56909 12.098 4.52601C12.5624 5.48341 12.7479 6.5522 12.6333 7.61009C12.5187 8.66799 12.1086 9.67226 11.45 10.508L13.885 12.942C14.0101 13.0671 14.0805 13.2367 14.0806 13.4137C14.0807 13.5906 14.0105 13.7603 13.8855 13.8855C13.7604 14.0107 13.5908 14.0811 13.4138 14.0812C13.2369 14.0813 13.0671 14.0111 12.942 13.886L10.507 11.45C9.79727 12.0096 8.96402 12.3914 8.07677 12.5634C7.18951 12.7354 6.27398 12.6928 5.40657 12.4389C4.53916 12.1851 3.74504 11.7275 3.09047 11.1044C2.4359 10.4812 1.93988 9.71047 1.6438 8.85656C1.34771 8.00266 1.26015 7.09032 1.38842 6.19569C1.5167 5.30106 1.85708 4.45008 2.38118 3.71378C2.90527 2.97747 3.59787 2.37719 4.40117 1.96304C5.20447 1.54888 6.09618 1.33286 6.99996 1.33301ZM6.99996 2.66701C5.85051 2.66674 4.74803 3.1231 3.93506 3.9357C3.12209 4.7483 2.66522 5.85056 2.66496 7.00001C2.66469 8.14946 3.12105 9.25193 3.93365 10.0649C4.74624 10.8779 5.84851 11.3347 6.99796 11.335C8.14741 11.3351 9.24983 10.8787 10.0627 10.066C10.8756 9.25327 11.3323 8.15096 11.3325 7.00151C11.3326 5.85206 10.8761 4.74964 10.0634 3.93676C9.25072 3.12388 8.14941 2.66714 6.99996 2.66701Z" fill="#2196F3"/>
</g>
<defs>
<clipPath id="clip0_1606_63090">
<rect width="16" height="16" fill="white"/>
</clipPath>
</defs>
</svg>
